<svg viewBox="0 0 147.1 15" xmlns="http://www.w3.org/2000/svg"><g fill="#444"><path d="m1.2 10.6-.2.8h-1v-11.4h1.3v3.1 1.4c.7-.6 1.5-1.1 2.4-1.1 2 0 3.1 1.6 3.1 4 0 2.7-1.6 4.2-3.4 4.2-.7 0-1.5-.4-2.2-1zm4.2-3.2c0-1.7-.6-2.9-2-2.9-.7 0-1.4.4-2.1 1.1v4.1c.7.6 1.4.8 1.9.8 1.3 0 2.2-1.2 2.2-3.1z"/><path d="m8.7 8.5v-4.9h1.3v4.8c0 1.5.4 2.1 1.5 2.1.8 0 1.4-.4 2.1-1.3v-5.6h1.3v7.8h-1.1l-.1-1.2c-.7.8-1.5 1.4-2.6 1.4-1.6 0-2.4-1.1-2.4-3.1z"/><path d="m17.6 3.6h1.1l.1 1.1c.7-.7 1.5-1.3 2.6-1.3 1.6 0 2.4 1.1 2.4 3v4.9h-1.3v-4.7c0-1.5-.4-2.1-1.5-2.1-.8 0-1.3.4-2.1 1.2v5.6h-1.3z"/><path d="m25.7 12.9c0-.7.4-1.3 1.1-1.8v-.1c-.4-.2-.7-.7-.7-1.3 0-.7.4-1.2.8-1.4-.5-.4-1-1.2-1-2.1 0-1.7 1.3-2.8 2.9-2.8.4 0 .8.1 1.1.2h2.7v1h-1.6c.4.4.6.9.6 1.6 0 1.7-1.3 2.7-2.8 2.7-.4 0-.8-.1-1.2-.3-.3.2-.5.5-.5.9 0 .5.3.8 1.4.8h1.5c1.8 0 2.7.6 2.7 1.9 0 1.4-1.5 2.7-3.9 2.7-1.8.1-3.1-.7-3.1-2zm5.9-.4c0-.7-.6-1-1.6-1h-1.3c-.3 0-.7 0-1-.1-.6.4-.8.9-.8 1.3 0 .8.8 1.4 2.3 1.4 1.4 0 2.4-.8 2.4-1.6zm-1-6.3c0-1.1-.7-1.8-1.6-1.8s-1.6.7-1.6 1.8.8 1.9 1.6 1.9 1.6-.8 1.6-1.9z"/><path d="m33.6 7.5c0-2.5 1.7-4.1 3.5-4.1 2 0 3.1 1.4 3.1 3.7v.8h-5.2c.1 1.6 1.1 2.7 2.6 2.7.7 0 1.4-.2 1.9-.6l.5.9c-.7.4-1.5.8-2.6.8-2.2-.1-3.8-1.6-3.8-4.2zm5.4-.6c0-1.6-.7-2.4-1.9-2.4-1.1 0-2.1.9-2.2 2.4z"/><path d="m42.1 3.6h1.1l.1 1.1c.7-.7 1.5-1.3 2.6-1.3 1.6 0 2.4 1.1 2.4 3v4.9h-1.3v-4.7c0-1.5-.4-2.1-1.5-2.1-.8 0-1.3.4-2.1 1.2v5.6h-1.3z"/><path d="m50.6 1.2c0-.5.4-.8.9-.8s.9.3.9.8-.4.8-.9.8-.9-.3-.9-.8zm.2 2.4h1.3v7.8h-1.3z"/><path d="m54.2 7.5c0-2.6 1.7-4.1 3.7-4.1 1 0 1.7.4 2.3.9l-.7.9c-.4-.4-.9-.7-1.6-.7-1.4 0-2.4 1.2-2.4 3s1 3 2.4 3c.7 0 1.3-.4 1.8-.8l.6.9c-.7.6-1.6 1-2.5 1-2 0-3.6-1.5-3.6-4.1z"/><path d="m61.8 1.2c0-.5.4-.8.9-.8s.9.3.9.8-.4.8-.9.8-.9-.3-.9-.8zm.3 2.4h1.3v7.8h-1.3z"/><path d="m65.5 8.1c0-4.3 3.1-7.1 6.7-7.1 3.2 0 5.2 2.1 5.2 5.3 0 2.8-1.7 4.3-3.2 4.3-.9 0-1.5-.4-1.6-1.2-.5.6-1.2 1.1-2 1.1-1.1 0-1.9-.8-1.9-2.3 0-1.7 1.2-3.7 3.1-3.7.5 0 1 .2 1.3.8l.2-.6h.9l-.6 3.2c-.3 1.3 0 1.9.9 1.9 1 0 2.1-1.2 2.1-3.3 0-2.6-1.5-4.5-4.4-4.5-2.8 0-5.6 2.4-5.6 6.2 0 3.1 2 4.9 4.8 4.9 1 0 1.9-.3 2.6-.7l.4.8c-.9.6-1.9.8-3 .8-3.4-.1-5.9-2.1-5.9-5.9zm6.8.5.5-2.5c-.3-.5-.6-.7-1-.7-1.3 0-2 1.5-2 2.7 0 1 .5 1.4 1.1 1.4.4.1.9-.2 1.4-.9z"/><path d="m79 12.9c0-.7.4-1.3 1.1-1.8v-.1c-.4-.2-.7-.7-.7-1.3 0-.7.4-1.2.8-1.4-.5-.4-1-1.2-1-2.1 0-1.7 1.3-2.8 2.9-2.8.4 0 .8.1 1.1.2h2.8v1h-1.6c.4.4.6 1 .6 1.6 0 1.7-1.3 2.7-2.8 2.7-.4 0-.8-.1-1.2-.3-.3.2-.5.5-.5.9 0 .5.3.8 1.4.8h1.5c1.8 0 2.7.6 2.7 1.9 0 1.4-1.5 2.7-3.9 2.7-1.9.1-3.2-.7-3.2-2zm5.8-.4c0-.7-.6-1-1.6-1h-1.3c-.3 0-.7 0-1-.1-.6.4-.8.9-.8 1.3 0 .8.8 1.4 2.3 1.4s2.4-.8 2.4-1.6zm-1-6.3c0-1.1-.7-1.8-1.6-1.8s-1.6.7-1.6 1.8.8 1.9 1.6 1.9 1.6-.8 1.6-1.9z"/><path d="m87.6 3.6h1.1l.1 1.1c.7-.7 1.5-1.3 2.4-1.3 1.2 0 1.8.6 2.1 1.5.9-.9 1.7-1.5 2.7-1.5 1.6 0 2.4 1.1 2.4 3v4.9h-1.4v-4.7c0-1.5-.5-2.1-1.4-2.1-.6 0-1.2.4-2 1.2v5.6h-1.3v-4.7c0-1.5-.5-2.1-1.5-2.1-.6 0-1.2.4-2 1.2v5.6h-1.3v-7.7z"/><path d="m100.4 9.4c0-1.7 1.5-2.5 4.8-2.9 0-1-.3-2-1.6-2-.9 0-1.7.4-2.3.8l-.5-.9c.7-.5 1.8-1 3.1-1 1.9 0 2.7 1.3 2.7 3.2v4.8h-1.1l-.1-.9c-.7.6-1.6 1.1-2.6 1.1-1.4 0-2.4-.8-2.4-2.2zm4.8.1v-2.2c-2.6.3-3.5 1-3.5 2 0 .9.6 1.2 1.4 1.2.7 0 1.3-.3 2.1-1z"/><path d="m108.7 1.2c0-.5.4-.8.9-.8s.9.3.9.8-.4.8-.9.8-.9-.3-.9-.8zm.2 2.4h1.3v7.8h-1.3z"/><path d="m112.9 9.8v-9.8h1.3v9.9c0 .4.2.6.4.6h.3l.2 1c-.2.1-.4.1-.8.1-1 0-1.4-.6-1.4-1.8z"/><path d="m116.7 10.6c0-.6.4-1 1-1 .5 0 .9.4.9 1s-.4 1-.9 1c-.6 0-1-.4-1-1z"/><path d="m120.2 7.5c0-2.6 1.7-4.1 3.7-4.1 1 0 1.7.4 2.3.9l-.7.9c-.4-.4-.9-.7-1.6-.7-1.4 0-2.4 1.2-2.4 3s1 3 2.4 3c.7 0 1.3-.4 1.8-.8l.6.9c-.7.6-1.6 1-2.5 1-2 0-3.6-1.5-3.6-4.1z"/><path d="m127.2 7.5c0-2.6 1.7-4.1 3.6-4.1s3.6 1.5 3.6 4.1-1.7 4.1-3.6 4.1-3.6-1.5-3.6-4.1zm5.8 0c0-1.8-.9-3-2.2-3s-2.2 1.2-2.2 3 .9 3 2.2 3 2.2-1.2 2.2-3z"/><path d="m136.4 3.6h1.1l.1 1.1c.7-.7 1.5-1.3 2.4-1.3 1.2 0 1.8.6 2.1 1.5.8-.9 1.6-1.5 2.6-1.5 1.6 0 2.4 1.1 2.4 3v4.9h-1.3v-4.7c0-1.5-.5-2.1-1.4-2.1-.6 0-1.2.4-2 1.2v5.6h-1.3v-4.7c0-1.5-.5-2.1-1.5-2.1-.6 0-1.2.4-2 1.2v5.6h-1.3v-7.7z"/></g></svg>