<svg enable-background="new 0 0 512 512" viewBox="0 0 512 512" xmlns="http://www.w3.org/2000/svg"><path d="m1.6 199h39.1l3.3 27.1h1.6c18.1-17.7 38.7-32.1 66.2-32.1 43.2 0 62.1 29.2 62.1 80.2v126.8h-47.3v-120.6c0-33.3-9.5-45.7-31.7-45.7-17.7 0-29.2 8.6-46.1 25.1v141.2h-47.2z"/><path d="m257.8 380.8h-.8l-2.1 20.2h-15.2v-295.8h18.1v85.6l-.8 38.7c20.2-16.9 44-30.9 68.3-30.9 52.7 0 79 39.5 79 100.8 0 67-40.7 106.5-87.2 106.5-19 0-40.8-9.9-59.3-25.1zm127.1-81.4c0-48.5-17.3-84.7-62.5-84.7-19.7 0-41.1 11.5-64.6 32.5v117.2c21.8 18.5 43.2 25.5 58.4 25.5 39.9 0 68.7-37.1 68.7-90.5z"/><path d="m450.7 373.8c0-18.5 13.6-32.1 30.8-32.1s30.4 13.6 30.4 32.1-13.2 32.1-30.4 32.1-30.8-13.6-30.8-32.1z"/></svg>