<svg enable-background="new 0 0 253.8 45.6" viewBox="0 0 253.8 45.6" xmlns="http://www.w3.org/2000/svg"><path d="m0 10.9h4.6l.4 3.2h.2c2.1-2.1 4.5-3.7 7.7-3.7 5 0 7.2 3.4 7.2 9.4v14.8h-5.5v-14.2c0-3.9-1.1-5.3-3.7-5.3-2.1 0-3.4 1-5.4 2.9v16.5h-5.5z"/><path d="m26.3 3.7c0-1.9 1.4-3.2 3.4-3.2s3.4 1.3 3.4 3.2c0 1.8-1.4 3.1-3.4 3.1s-3.4-1.3-3.4-3.1zm.6 7.2h5.5v23.6h-5.5z"/><path d="m37.9 22.8c0-7.9 5.5-12.4 11.8-12.4 3 0 5.2 1.2 6.9 2.6l-2.6 3.6c-1.2-1.1-2.4-1.7-3.9-1.7-3.8 0-6.4 3.1-6.4 7.9 0 4.7 2.6 7.8 6.3 7.8 1.8 0 3.5-.9 4.8-2l2.3 3.6c-2.2 1.9-5 2.9-7.7 2.9-6.5 0-11.5-4.5-11.5-12.3z"/><path d="m58.9 22.8c0-7.9 5.3-12.4 11.2-12.4s11.2 4.5 11.2 12.4c0 7.8-5.3 12.3-11.2 12.3-5.8 0-11.2-4.5-11.2-12.3zm16.8 0c0-4.8-2.1-7.9-5.6-7.9s-5.5 3.1-5.5 7.9c0 4.7 2.1 7.8 5.5 7.8 3.5 0 5.6-3.1 5.6-7.8z"/><path d="m86.8 28.5v-27.9h5.5v28.1c0 1.3.6 1.8 1.2 1.8.2 0 .4 0 .9-.1l.7 4.1c-.7.3-1.6.5-2.9.5-3.9.1-5.4-2.5-5.4-6.5z"/><path d="m98.3 22.8c0-7.7 5.3-12.4 10.8-12.4 6.4 0 9.7 4.6 9.7 11.2 0 1.1-.1 2.1-.2 2.7h-15c.5 4.2 3.2 6.6 7 6.6 2 0 3.7-.6 5.5-1.7l1.9 3.5c-2.3 1.5-5.1 2.5-8.1 2.5-6.5-.1-11.6-4.7-11.6-12.4zm15.8-2.3c0-3.6-1.6-5.9-4.8-5.9-2.8 0-5.2 2.1-5.7 5.9z"/><path d="m127.2 32.2-.3 2.4h-1.8v-34.6h2.1v10l-.1 4.5c2.4-2 5.1-3.6 8-3.6 6.1 0 9.2 4.6 9.2 11.8 0 7.8-4.8 12.4-10.2 12.4-2.2 0-4.7-1.2-6.9-2.9zm14.8-9.5c0-5.7-2-9.9-7.3-9.9-2.3 0-4.8 1.3-7.5 3.8v13.7c2.5 2.2 5 3 6.8 3 4.7-.1 8-4.4 8-10.6z"/><path d="m150.8 26.3v-14.8h2.1v14.5c0 4.9 1.5 7.2 5.2 7.2 2.7 0 4.8-1.4 7.4-4.7v-17h2.1v23h-1.8l-.2-3.8h-.1c-2.3 2.6-4.7 4.4-7.8 4.4-4.7 0-6.9-2.9-6.9-8.8z"/><path d="m176.5 11.5h1.8l.2 3.6h.1c2.4-2.4 4.8-4.1 7.9-4.1 4.8 0 7 2.9 7 8.8v14.8h-2.1v-14.6c0-4.9-1.5-7.2-5.3-7.2-2.7 0-4.7 1.4-7.5 4.3v17.4h-2.1z"/><path d="m200.1 39.2c0-2 1.3-4 3.4-5.6v-.2c-1.2-.7-2-1.9-2-3.7 0-2.1 1.5-3.5 2.5-4.2v-.2c-1.4-1.2-2.9-3.6-2.9-6.3 0-4.8 3.6-8.1 8.1-8.1 1.2 0 2.3.3 3 .6h7.8v1.8h-5.4c1.5 1.3 2.5 3.4 2.5 5.8 0 4.7-3.5 8.1-8 8.1-1.3 0-2.8-.3-3.8-1-1 .8-1.9 1.8-1.9 3.3 0 1.7 1 3 4.4 3h4.9c5.2 0 7.6 1.6 7.6 5.3 0 4-4.3 7.8-10.9 7.8-5.6 0-9.3-2.5-9.3-6.4zm18.2-1.1c0-2.5-1.9-3.5-5.3-3.5h-5c-.5 0-1.7-.1-2.9-.4-2.1 1.4-3 3.2-3 4.8 0 2.9 2.8 4.8 7.7 4.8 5.2.1 8.5-2.9 8.5-5.7zm-3.1-19.1c0-3.9-2.7-6.4-6-6.4s-6 2.4-6 6.4c0 3.9 2.8 6.5 6 6.5s6-2.6 6-6.5z"/><path d="m223 23c0-7.5 4.9-12.1 10-12.1 5.5 0 8.8 3.9 8.8 10.7 0 .6 0 1.2-.1 1.7h-16.6c.1 5.8 3.5 10 8.7 10 2.5 0 4.5-.8 6.2-2.1l.9 1.6c-1.8 1.1-3.9 2.3-7.2 2.3-6 0-10.7-4.5-10.7-12.1zm16.8-1.4c0-5.9-2.6-8.8-6.8-8.8-3.9 0-7.4 3.3-7.9 8.8z"/><path d="m246.7 31.3c0-2.2 1.6-3.7 3.6-3.7s3.6 1.6 3.6 3.7-1.5 3.7-3.6 3.7-3.6-1.5-3.6-3.7z"/></svg>